<svg id="Capa_1" enable-background="new 0 0 512.107 512.107" height="512" viewBox="0 0 512.107 512.107" width="512" xmlns="http://www.w3.org/2000/svg"><g><path d="m385.727 293.914c4.053.853 8.03-1.745 8.881-5.799 2.578-12.279 3.496-24.915 2.729-37.556-4.712-77.577-71.706-136.875-149.319-132.166-37.603 2.277-72.065 19.053-97.04 47.236-24.978 28.185-37.476 64.403-35.193 101.985 4.536 74.694 66.789 132.427 140.697 132.427 48.742.301 95.931-26.253 121.03-68.426 2.135-3.55.988-8.158-2.562-10.293-3.55-2.134-8.156-.987-10.292 2.562-21.435 35.637-58.99 58.412-100.461 60.924-69.355 4.205-129.23-48.778-133.44-118.103-2.039-33.58 9.129-65.943 31.446-91.127 22.319-25.185 53.117-40.176 86.721-42.211 69.364-4.206 129.231 48.779 133.44 118.103.687 11.304-.134 22.597-2.436 33.565-.851 4.052 1.746 8.028 5.799 8.879z"/><path d="m162.832 211.623c-3.833-1.565-8.213.271-9.779 4.106-9.469 23.173-10.824 49.25-3.816 73.427 12.633 46.187 58.759 81.42 107.184 80.687 35.484.397 71.871-18.208 92.116-48.089 35.179-50.662 22.581-120.499-28.081-155.678-42.104-29.237-98.5-26.199-137.14 7.39-3.127 2.718-3.458 7.455-.74 10.581 2.717 3.126 7.455 3.456 10.58.74 33.453-29.079 82.283-31.708 118.745-6.389 43.868 30.461 54.776 90.933 24.315 134.801-14.756 21.251-36.904 35.483-62.365 40.076-25.459 4.59-51.186-1.005-72.437-15.761-36.976-25.675-51.476-74.507-34.477-116.111 1.568-3.835-.271-8.213-4.105-9.78z"/><path d="m233.339 203.927c-7.691-7.959-22.873-9.176-31.818 0-7.96 7.691-9.177 22.873-.001 31.82 7.692 7.959 22.872 9.178 31.82 0 8.771-8.772 8.771-23.046-.001-31.82.001.001.001.001 0 0zm-10.606 21.214c-2.234 2.133-6.83 3.401-10.607 0-2.132-2.234-3.399-6.829.001-10.606 2.233-2.133 6.829-3.4 10.606 0 2.923 2.924 2.923 7.682 0 10.606z"/><path d="m279.811 282.221c-8.771 8.772-8.771 23.047.001 31.82 8.09 8.013 22.473 9.211 31.82 0 8.771-8.772 8.771-23.047 0-31.819-8.214-8.404-23.074-8.704-31.821-.001zm21.215 21.212c-2.926 2.924-7.684 2.925-10.607 0-2.924-2.924-2.924-7.682-.001-10.606 2.342-2.16 6.717-3.396 10.607 0 2.924 2.925 2.924 7.682.001 10.606z"/><path d="m299.064 206.399-95 95c-2.929 2.929-2.929 7.678 0 10.606 2.346 2.163 6.712 3.401 10.607 0l95-95c2.929-2.929 2.929-7.678 0-10.606s-7.677-2.928-10.607 0z"/><path d="m482.665 236.091c-14.37-.409-27.343 11.743-27.626 26.649-1.959 102.623-80.475 186.181-182.635 194.363-18.637 1.492-37.353.341-55.631-3.418-4.054-.833-8.021 1.778-8.856 5.835s1.777 8.023 5.835 8.857c19.666 4.045 39.804 5.283 59.85 3.678 109.879-8.8 194.328-98.663 196.436-209.029.126-6.631 5.539-11.94 12.113-11.94 5.824-.102 12.185 5.424 12.111 12.408-1.122 58.837-23.909 114.999-64.161 158.139-40.522 43.43-95.417 69.957-154.572 74.694-69.817 5.598-138.188-19.797-187.584-69.654-2.04-2.058-5.082-2.756-7.813-1.798-2.733.959-4.669 3.407-4.974 6.287l-.729 6.891c-.617 5.822-5.269 10.384-11.061 10.848-6.275.661-13.907-5.418-13.034-13.426l5.633-53.183c.052-5.123 5.533-11.971 12.704-11.552l49.053 2.385c6.675.324 11.841 6.044 11.517 12.75-.303 5.367-5.094 11.855-12.687 11.569l-5.287-.257c-3.096-.149-5.963 1.616-7.22 4.449-1.257 2.832-.643 6.145 1.544 8.338 20.706 20.767 45.013 36.797 72.245 47.645 3.846 1.532 8.211-.344 9.743-4.192s-.344-8.21-4.192-9.743c-20.354-8.107-38.95-19.33-55.463-33.45 7.89-3.125 16.114-13.234 16.299-23.635.724-14.965-10.838-27.731-25.771-28.457l-48.988-2.382c-12.89-1.133-27.843 10.561-28.435 25.151l-5.611 52.983c-1.633 16.243 11.883 31.347 29.146 29.958 10.406-.833 19.166-7.542 22.942-16.864 51.298 46.389 120.033 69.945 189.219 64.291 62.896-5.038 121.261-33.24 164.342-79.413 42.781-45.85 66.998-105.544 68.192-168.086.287-14.981-11.642-27.402-26.594-27.689z"/><path d="m51.472 288.56c4.718-5.518 6.997-12.539 6.417-19.768-4.23-52.794 12.476-104.134 47.041-144.563 34.572-40.436 82.795-65.027 135.785-69.244 63.377-5.046 123.884 19.545 165.255 66.349-9.533 1.943-17.721 8.935-20.675 18.87-4.16 12.888 3.734 29.778 18.352 33.732l53.179 15.709c12.828 4.532 31.432-4.693 34.301-19.719l2.745-9.504c1.149-3.979-1.145-8.138-5.124-9.287-3.977-1.147-8.137 1.145-9.286 5.124-.24.898-2.854 9.739-2.966 10.355-1.007 5.049-8.295 10.944-15.336 8.67l-53.263-15.734c-5.144-1.562-10.314-7.765-8.225-15.071 1.91-6.422 8.71-10.095 15.171-8.188l6.432 1.9c3.083.912 6.414-.248 8.265-2.885 1.85-2.636 1.81-6.159-.1-8.753-21.388-29.061-50.081-52.421-82.977-67.555-33.311-15.324-70.289-21.883-106.938-18.966-56.976 4.535-108.825 30.975-145.995 74.449-37.177 43.482-55.145 98.709-50.592 155.509.382 5.384-3.606 12.372-11.187 13.056-6.721.542-12.599-4.458-13.134-11.129-5.075-63.336 14.901-124.852 56.251-173.215 13.404-15.676 28.686-29.522 45.419-41.154 3.401-2.364 4.242-7.038 1.878-10.439-2.363-3.4-7.035-4.243-10.438-1.877-17.786 12.362-34.022 27.072-48.259 43.722-43.961 51.417-65.199 116.82-59.801 184.161 1.136 14.181 13.068 24.972 27.092 24.971 6.668.047 15.25-3.109 20.713-9.526z"/><path d="m149.658 40.14c27.383-13.655 56.963-21.829 87.921-24.292 84.431-6.715 166.835 32.097 215.081 101.296 1.654 2.372 4.526 3.584 7.375 3.11 2.853-.471 5.18-2.54 5.982-5.318l1.897-6.567c1.86-6.436 8.639-10.161 15.105-8.305 5.157 1.523 10.376 7.685 8.343 15.007l-2.336 8.086c-1.15 3.979 1.145 8.137 5.123 9.287 3.019.877 7.642-.518 9.287-5.124l2.336-8.085c4.059-12.92-3.967-29.748-18.615-33.588-11.894-3.414-24.259 1.667-30.545 11.628-50.904-65.93-136.603-103.672-220.223-96.38-32.883 2.617-64.315 11.305-93.425 25.821-3.707 1.849-5.214 6.352-3.365 10.059 1.849 3.706 6.352 5.213 10.059 3.365z"/></g></svg>
